:FULLY-SPECIFIED
:FORCE-ALL-JOINTS-BE-3DOF
:DEGREES
713
root 5.47126 21.2293 7.36583 -130.434 -87.0766 146.47
lfemur -35.053 -12.634 10.0545
ltibia 71.048 0 0
lfoot 7.4971 -8.91488 0
ltoes 30.471 0 0
rfemur -32.352 -0.404313 -0.830358
rtibia 90.22 0 0
rfoot 20.3285 -20.2928 0
rtoes 40.9777 0 0
lowerback 6.05168 -1.0798 -1.94667
upperback -1.29487 -1.67409 -1.64618
thorax -4.75747 -0.808546 -0.488564
lowerneck -6.78369 -6.30238 -2.33143
upperneck -0.094197 -8.38189 5.00844
head 1.46053 -4.12047 1.67847
lclavicle 9.14488e-15 3.48856e-14 0
lhumerus 2.44959 -20.5571 14.9469
lradius 46.6746 0 0
lwrist 23.0731 0 0
lhand -22.2354 -3.52586 0
lfingers 7.12502 0 0
lthumb 4.18144 26.4138 0
rclavicle 9.14488e-15 3.48856e-14 0
rhumerus -14.0972 -2.71875 -26.105
rradius 99.8376 0 0
rwrist -9.97595 0 0
rhand -26.9097 -34.4493 0
rfingers 7.12502 0 0
rthumb -0.332738 -784.422 0
714
root 5.48112 21.3794 7.58092 -135.938 -87.3442 152.16
lfemur -34.2652 -13.6406 9.22008
ltibia 67.9508 0 0
lfoot 7.44888 -9.18575 0
ltoes 30.1403 0 0
rfemur -33.2283 -0.956319 -1.39289
rtibia 93.8889 0 0
rfoot 20.8271 -20.621 0
rtoes 42.1064 0 0
lowerback 6.04237 -0.823467 -1.864
upperback -1.30514 -1.32804 -1.60106
thorax -4.75313 -0.637057 -0.502342
lowerneck -6.83623 -6.37989 -2.3915
upperneck -0.278008 -8.47276 4.95367
head 1.41211 -4.17087 1.66821
lclavicle 1.11148e-14 3.35138e-14 0
lhumerus 0.308142 -20.4226 15.8022
lradius 45.5471 0 0
lwrist 22.785 0 0
lhand -22.22 -3.42314 0
lfingers 7.12502 0 0
lthumb 4.19635 26.5155 0
rclavicle 1.11148e-14 3.35138e-14 0
rhumerus -12.5027 -2.28871 -26.866
rradius 99.525 0 0
rwrist -9.93216 0 0
rhand -26.6959 -34.1721 0
rfingers 7.12502 0 0
rthumb -0.12637 -784.149 0
715
root 5.49097 21.5295 7.79601 -140.605 -87.2103 157.04
lfemur -33.5571 -14.4896 8.51967
ltibia 65.1241 0 0
lfoot 7.43438 -9.44215 0
ltoes 29.8338 0 0
rfemur -33.8349 -1.58686 -1.91882
rtibia 97.0122 0 0
rfoot 21.3635 -20.6634 0
rtoes 42.9309 0 0
lowerback 5.99658 -0.553404 -1.77502
upperback -1.3238 -0.963173 -1.56773
thorax -4.7355 -0.456483 -0.530585
lowerneck -6.88249 -6.45178 -2.43303
upperneck -0.433777 -8.5592 4.89979
head 1.37063 -4.21848 1.65523
lclavicle 1.2921e-14 3.18055e-14 0
lhumerus -1.77093 -20.2407 16.623
lradius 44.6521 0 0
lwrist 22.5382 0 0
lhand -22.2191 -3.35407 0
lfingers 7.12502 0 0
lthumb 4.19717 26.5843 0
rclavicle 1.2921e-14 3.18055e-14 0
rhumerus -10.8552 -1.84384 -27.5558
rradius 99.2563 0 0
rwrist -9.86977 0 0
rhand -26.5547 -33.9151 0
rfingers 7.12502 0 0
rthumb 0.0100137 -783.895 0
716
root 5.44711 21.4025 8.00895 -144.561 -86.6585 161.25
lfemur -32.8602 -15.2309 7.91368
ltibia 62.3723 0 0
lfoot 7.49636 -9.72269 0
ltoes 29.5179 0 0
rfemur -34.2168 -2.34267 -2.44416
rtibia 99.7795 0 0
rfoot 21.9517 -20.392 0
rtoes 43.4653 0 0
lowerback 5.90137 -0.256867 -1.66744
upperback -1.35515 -0.56187 -1.53972
thorax -4.70034 -0.258288 -0.57398
lowerneck -6.93089 -6.51873 -2.45513
upperneck -0.568529 -8.64206 4.83819
head 1.33473 -4.26412 1.63645
lclavicle 1.47509e-14 2.95785e-14 0
lhumerus -3.91287 -20.0504 17.4649
lradius 43.9623 0 0
lwrist 22.3324 0 0
lhand -22.2162 -3.30814 0
lfingers 7.12502 0 0
lthumb 4.19998 26.6303 0
rclavicle 1.47509e-14 2.95785e-14 0
rhumerus -9.04385 -1.41467 -28.1716
rradius 98.9935 0 0
rwrist -9.8086 0 0
rhand -26.4929 -33.69 0
rfingers 7.12502 0 0
rthumb 0.0696859 -783.672 0
717
root 5.40326 21.2755 8.22189 -148.017 -85.7139 165.01
lfemur -32.1048 -15.923 7.34537
ltibia 59.4905 0 0
lfoot 7.66422 -10.0607 0
ltoes 29.1568 0 0
rfemur -34.4487 -3.25749 -3.00084
rtibia 102.424 0 0
rfoot 22.5947 -19.8177 0
rtoes 43.7575 0 0
lowerback 5.74962 0.0754217 -1.5315
upperback -1.4018 -0.111267 -1.50983
thorax -4.6453 -0.0362295 -0.631183
lowerneck -6.98969 -6.58211 -2.45919
upperneck -0.691982 -8.72271 4.76123
head 1.30237 -4.30886 1.60951
lclavicle 1.67858e-14 2.67129e-14 0
lhumerus -6.2385 -19.8946 18.3911
lradius 43.4277 0 0
lwrist 22.1614 0 0
lhand -22.1946 -3.27191 0
lfingers 7.12502 0 0
lthumb 4.22081 26.6665 0
rclavicle 1.67858e-14 2.67129e-14 0
rhumerus -6.98224 -1.02634 -28.7274
rradius 98.6945 0 0
rwrist -9.76789 0 0
rhand -26.5065 -33.5045 0
rfingers 7.12502 0 0
rthumb 0.0565665 -783.488 0
718
root 5.3594 21.1486 8.43484 -151.006 -84.4069 168.348
lfemur -31.3017 -16.5632 6.80999
ltibia 56.5054 0 0
lfoot 7.92188 -10.4464 0
ltoes 28.7544 0 0
rfemur -34.5429 -4.31489 -3.58013
rtibia 104.943 0 0
rfoot 23.2833 -18.9716 0
rtoes 43.8276 0 0
lowerback 5.54737 0.439025 -1.37095
upperback -1.46191 0.382532 -1.47866
thorax -4.57233 0.20674 -0.700729
lowerneck -7.0574 -6.64227 -2.44692
upperneck -0.804762 -8.80136 4.67098
head 1.2733 -4.35276 1.57539
lclavicle 1.89903e-14 2.32804e-14 0
lhumerus -8.724 -19.7698 19.3975
lradius 43.0378 0 0
lwrist 22.0216 0 0
lhand -22.1572 -3.24519 0
lfingers 7.12502 0 0
lthumb 4.25694 26.6931 0
rclavicle 1.89903e-14 2.32804e-14 0
rhumerus -4.70522 -0.670168 -29.2348
rradius 98.3628 0 0
rwrist -9.74394 0 0
rhand -26.5869 -33.3536 0
rfingers 7.12502 0 0
rthumb -0.0211257 -783.339 0
719
root 5.31555 21.0216 8.64778 -153.564 -82.7681 171.294
lfemur -30.4613 -17.1488 6.30273
ltibia 53.4436 0 0
lfoot 8.2533 -10.8698 0
ltoes 28.315 0 0
rfemur -34.5117 -5.49843 -4.17331
rtibia 107.335 0 0
rfoot 24.0079 -17.8842 0
rtoes 43.6958 0 0
lowerback 5.30065 0.829508 -1.18951
upperback -1.53367 0.913424 -1.44678
thorax -4.48341 0.467667 -0.781148
lowerneck -7.1325 -6.69956 -2.42
upperneck -0.907495 -8.87822 4.56952
head 1.24729 -4.39587 1.53506
lclavicle 2.13291e-14 1.93526e-14 0
lhumerus -11.3456 -19.6722 20.4802
lradius 42.782 0 0
lwrist 21.9091 0 0
lhand -22.1068 -3.22781 0
lfingers 7.12502 0 0
lthumb 4.30566 26.7102 0
rclavicle 2.13291e-14 1.93526e-14 0
rhumerus -2.24764 -0.337476 -29.7055
rradius 98.002 0 0
rwrist -9.73306 0 0
rhand -26.7257 -33.2325 0
rfingers 7.12502 0 0
rthumb -0.155172 -783.219 0
720
root 5.27169 20.8946 8.86072 -155.724 -80.8277 173.876
lfemur -29.5943 -17.6771 5.81883
ltibia 50.3314 0 0
lfoot 8.6424 -11.3209 0
ltoes 27.8426 0 0
rfemur -34.3674 -6.79167 -4.77166
rtibia 109.597 0 0
rfoot 24.7592 -16.5866 0
rtoes 43.3822 0 0
lowerback 5.01548 1.24243 -0.990932
upperback -1.61522 1.4753 -1.41478
thorax -4.38051 0.7436 -0.870975
lowerneck -7.2135 -6.75432 -2.38012
upperneck -1.00081 -8.95351 4.45891
head 1.2241 -4.43825 1.48951
lclavicle 2.37668e-14 1.50014e-14 0
lhumerus -14.0794 -19.598 21.6349
lradius 42.65 0 0
lwrist 21.8202 0 0
lhand -22.0461 -3.21957 0
lfingers 7.12502 0 0
lthumb 4.36426 26.7181 0
rclavicle 2.37668e-14 1.50014e-14 0
rhumerus 0.355663 -0.0195785 -30.1512
rradius 97.6158 0 0
rwrist -9.73157 0 0
rhand -26.9143 -33.1363 0
rfingers 7.12502 0 0
rthumb -0.337352 -783.124 0
721
root 5.22784 20.7676 9.07366 -157.521 -78.6164 176.124
lfemur -28.7114 -18.1453 5.3535
ltibia 47.1956 0 0
lfoot 9.07314 -11.79 0
ltoes 27.3414 0 0
rfemur -34.1223 -8.17816 -5.36643
rtibia 111.726 0 0
rfoot 25.5278 -15.1094 0
rtoes 42.9071 0 0
lowerback 4.6979 1.67337 -0.778935
upperback -1.70475 2.06207 -1.38325
thorax -4.2656 1.03159 -0.968741
lowerneck -7.29887 -6.80689 -2.32898
upperneck -1.08532 -9.02744 4.34123
head 1.2035 -4.47994 1.43971
lclavicle 2.62683e-14 1.02985e-14 0
lhumerus -16.9016 -19.5436 22.8577
lradius 42.6312 0 0
lwrist 21.7511 0 0
lhand -21.978 -3.22027 0
lfingers 7.12502 0 0
lthumb 4.43004 26.717 0
rclavicle 2.62683e-14 1.02985e-14 0
rhumerus 3.06984 0.292206 -30.5835
rradius 97.2075 0 0
rwrist -9.73577 0 0
rhand -27.1443 -33.0602 0
rfingers 7.12502 0 0
rthumb -0.559449 -783.048 0
722
root 5.18398 20.6407 9.28661 -158.988 -76.1645 178.065
lfemur -27.823 -18.5506 4.90196
ltibia 44.0627 0 0
lfoot 9.52945 -12.267 0
ltoes 26.8154 0 0
rfemur -33.7887 -9.64148 -5.94891
rtibia 113.721 0 0
rfoot 26.3041 -13.4837 0
rtoes 42.2905 0 0
lowerback 4.35394 2.11787 -0.557259
upperback -1.80041 2.66762 -1.35278
thorax -4.14065 1.32867 -1.07298
lowerneck -7.38713 -6.85762 -2.26827
upperneck -1.16167 -9.10023 4.21857
head 1.18526 -4.52101 1.38663
lclavicle 2.8798e-14 5.3156e-15 0
lhumerus -19.7884 -19.5053 24.1444
lradius 42.7152 0 0
lwrist 21.6981 0 0
lhand -21.9053 -3.22974 0
lfingers 7.12502 0 0
lthumb 4.50026 26.7071 0
rclavicle 2.8798e-14 5.3156e-15 0
rhumerus 5.86003 0.606559 -31.014
rradius 96.7808 0 0
rwrist -9.74196 0 0
rhand -27.4071 -32.9993 0
rfingers 7.12502 0 0
rthumb -0.813243 -782.988 0
